PathFileType	4	(X/Y/Z)	Kaydara	
DataRate	CameraRate	NumFrames	NumMarkers	Units	OrigDataRate	OrigDataStartFrame	OrigNumFrames	
60.00	60.00	4	74	mm	60.00	1056	111	
Frame#	Time	Y_rasi			Y_rpsi			Y_lpsi			Y_fneck			Y_bneck			Y_fhead			Y_rhead			Y_rshld			Y_relbtop			Y_relbext			Y_relblow			Y_rwrext			Y_rwrtop			Y_rwrlow			Y_lshld			Y_lelbext			Y_lelblow			Y_lelbtop			Y_lwrext			Y_lwrtop			Y_lwrlow			Y_rtopleg			Y_ltopleg			Y_rkneefr			Y_rkneebk			Y_rkneeis			Y_lkneefr			Y_lknssbk			Y_lkneeis			Y_rankfr			Y_rankis			Y_rankbk			Y_lankfr			Y_lankbk			Y_lankis			Y_lhead			Y_lasi			D_rpsi			D_lpsi			D_fneck			D_bneck			D_fhead			D_rhead			D_lhead			D_rshld			D_relbtop			D_relbext			D_relblow			D_rwrext			D_rwrtop			D_rwrlow			D_lshld			D_lelbext			D_lelblow			D_lelbtop			D_lwrext			D_lwrtop			D_lwrlow			D_rtopleg			D_ltopleg			D_rkneefr			D_rkneebk			D_rkneeis			D_lkneefr			D_lknssbk			D_lkneeis			D_rankfr			D_rankis			D_rankbk			D_lankfr			D_lankbk			D_lankis			D_lasi			D_rasi			
		X1	Y1	Z1	X2	Y2	Z2	X3	Y3	Z3	X4	Y4	Z4	X5	Y5	Z5	X6	Y6	Z6	X7	Y7	Z7	X8	Y8	Z8	X9	Y9	Z9	X10	Y10	Z10	X11	Y11	Z11	X12	Y12	Z12	X13	Y13	Z13	X14	Y14	Z14	X15	Y15	Z15	X16	Y16	Z16	X17	Y17	Z17	X18	Y18	Z18	X19	Y19	Z19	X20	Y20	Z20	X21	Y21	Z21	X22	Y22	Z22	X23	Y23	Z23	X24	Y24	Z24	X25	Y25	Z25	X26	Y26	Z26	X27	Y27	Z27	X28	Y28	Z28	X29	Y29	Z29	X30	Y30	Z30	X31	Y31	Z31	X32	Y32	Z32	X33	Y33	Z33	X34	Y34	Z34	X35	Y35	Z35	X36	Y36	Z36	X37	Y37	Z37	X38	Y38	Z38	X39	Y39	Z39	X40	Y40	Z40	X41	Y41	Z41	X42	Y42	Z42	X43	Y43	Z43	X44	Y44	Z44	X45	Y45	Z45	X46	Y46	Z46	X47	Y47	Z47	X48	Y48	Z48	X49	Y49	Z49	X50	Y50	Z50	X51	Y51	Z51	X52	Y52	Z52	X53	Y53	Z53	X54	Y54	Z54	X55	Y55	Z55	X56	Y56	Z56	X57	Y57	Z57	X58	Y58	Z58	X59	Y59	Z59	X60	Y60	Z60	X61	Y61	Z61	X62	Y62	Z62	X63	Y63	Z63	X64	Y64	Z64	X65	Y65	Z65	X66	Y66	Z66	X67	Y67	Z67	X68	Y68	Z68	X69	Y69	Z69	X70	Y70	Z70	X71	Y71	Z71	X72	Y72	Z72	X73	Y73	Z73	X74	Y74	Z74	

56	17.583	-539.89799	1094.08424	-142.20792	-539.02348	1074.87297	-326.23543	-310.07175	1058.81226	-261.88658	-445.27470	1436.03775	-171.13079	-362.20333	1481.98486	-250.40943	-498.53104	1635.19424	-118.12709	-460.95860	1567.33734	-279.87932	-585.40077	1429.67789	-297.82993	-617.29259	1121.54778	-347.71515	-622.41493	1138.16864	-404.64931	-555.18570	1117.80655	-406.12572	-664.89174	871.74141	-312.95292	-697.02675	890.19958	-291.73241	-677.61879	909.53857	-255.52036	-224.67182	1383.59924	-119.79402	-156.42221	1074.01718	-182.25611	-205.96823	1065.60944	-213.91361	-206.61272	1083.10677	-141.49105	-249.85800	838.95554	-105.06986	-248.22685	847.49954	-63.02620	-289.82431	872.99179	-61.37118	-613.78685	917.68944	-284.82372	-276.08433	905.83336	-150.84641	-635.12505	413.10703	-279.91096	-611.92070	456.19862	-355.04414	-539.17793	418.78315	-269.29447	-328.73055	476.02085	-124.02556	-263.95098	493.77258	-216.94851	-384.74396	469.73595	-201.77500	-630.54829	142.55468	-330.98255	-559.95804	133.68540	-341.99200	-600.33672	136.90795	-396.50105	-273.89076	131.69779	-171.86275	-256.34218	128.43036	-239.34412	-330.21118	126.35205	-209.77232	-342.66685	1573.55072	-183.23664	-384.88373	1076.43211	-96.53155	-926.56616	1175.59021	589.42703	-1079.89830	1190.31944	501.19411	-917.43095	1613.15216	456.64219	-1013.24570	1656.49826	527.79537	-882.51534	1814.08325	373.08609	-960.37888	1796.80710	533.32180	-1050.19394	1783.20786	410.99556	-814.85252	1595.68680	556.55910	-739.85329	1230.24834	568.70651	-698.81287	1257.32712	617.11227	-771.36452	1238.04901	647.40593	-640.08438	962.37320	651.68243	-602.15034	975.20264	639.44294	-604.47338	976.26884	591.12694	-1150.16129	1612.56897	436.78474	-1211.14609	1251.69907	353.75351	-1161.60797	1221.81572	404.69376	-1155.25200	1260.09384	327.16106	-1171.69937	1013.16589	263.23002	-1191.35750	1034.99634	227.24709	-1149.83597	1048.71819	207.83928	-818.99162	1036.31042	568.06652	-1117.32368	1034.48418	381.38416	-824.07387	556.93535	468.49789	-829.48944	561.89125	580.82748	-934.17648	546.88595	512.59312	-1018.13339	471.80328	374.89029	-1105.42023	519.41238	430.48157	-1013.27499	502.68490	488.28865	-834.08745	192.31321	546.56208	-909.87930	186.42414	532.31258	-882.27127	186.03720	614.28261	-1061.70914	162.57219	414.81937	-1078.29514	154.24281	491.08944	-997.19803	165.80999	445.58273	-1013.59123	1196.99898	357.53361	-831.83136	1186.89140	449.86851 
57	17.600	-539.78996	1093.99246	-142.23742	-538.92258	1074.83719	-326.15906	-309.81262	1058.91388	-262.07279	-445.69504	1435.94818	-170.86693	-362.74036	1482.13531	-249.76620	-499.33044	1634.89197	-117.85570	-461.46976	1567.04437	-279.74854	-585.51170	1429.55200	-298.21075	-616.02440	1122.36954	-350.30838	-619.89273	1138.90022	-407.49577	-552.80499	1118.15292	-407.36565	-666.42693	874.71840	-311.10649	-700.14511	894.03107	-293.18401	-683.14369	914.69261	-256.38067	-225.47945	1383.83148	-118.90045	-155.75840	1075.02380	-184.76398	-206.04122	1066.27831	-215.39259	-204.74449	1084.25148	-143.00027	-250.67245	841.13152	-103.80606	-245.88778	849.37958	-60.83043	-284.66291	875.59410	-56.45129	-613.79059	917.64236	-284.58504	-275.92796	905.84999	-150.89030	-634.91398	413.14308	-280.04118	-611.72295	456.25591	-355.20096	-538.91354	418.83854	-269.46890	-328.61671	476.02722	-124.06915	-263.93894	493.75473	-216.97441	-384.70886	469.74640	-201.75106	-630.49866	142.58161	-331.01780	-559.93561	133.68270	-341.96003	-600.27714	136.90896	-396.48933	-273.71696	131.55022	-171.97872	-256.33575	128.42299	-239.34841	-330.19028	126.35570	-209.77652	-343.54221	1573.78952	-182.39813	-384.72549	1076.34209	-96.59068	-929.14345	1175.90630	588.92467	-1081.88828	1189.73755	499.77322	-918.85864	1612.80975	456.10016	-1015.05959	1656.63849	526.36642	-882.31392	1813.95233	372.69505	-961.64284	1797.27753	532.02297	-1050.55580	1783.80508	409.12857	-817.13257	1593.58902	556.35319	-743.95706	1227.36160	566.64127	-703.20152	1253.85429	615.49751	-775.66536	1234.33807	645.31425	-644.31931	958.53043	644.91020	-606.24557	971.69266	632.76249	-608.43533	973.71170	584.44695	-1154.88922	1607.93167	432.95013	-1212.09045	1246.49208	351.76193	-1162.67654	1217.06085	403.43231	-1155.64964	1254.73740	325.82710	-1171.07742	1007.04697	263.64222	-1189.70833	1029.03320	227.01139	-1147.42813	1042.04033	208.70630	-821.40373	1036.81335	567.86053	-1119.20586	1034.23561	380.25120	-824.20181	556.96594	467.05875	-830.52895	561.89735	579.34147	-934.26506	546.68434	510.18917	-1019.89563	471.80363	375.65216	-1107.39853	519.32858	430.89439	-1015.28679	502.83035	489.02981	-834.37050	192.37597	546.37596	-910.32593	186.27483	531.91643	-882.77451	186.19509	613.82538	-1062.35077	162.52951	414.96532	-1078.78784	154.06849	491.37283	-997.83257	165.96830	445.60207	-1015.42191	1196.23528	356.57463	-833.94569	1187.10754	449.32175 
58	17.617	-539.61353	1093.83011	-142.31130	-538.77228	1074.80515	-326.10989	-309.81201	1058.96400	-261.95639	-446.11362	1435.81268	-170.44125	-363.14182	1482.24319	-249.24881	-500.17437	1634.70993	-117.60641	-462.13264	1566.83990	-279.26981	-585.65174	1429.45053	-298.74262	-614.76948	1123.30788	-353.27927	-617.23488	1139.75357	-410.50957	-550.32574	1118.63609	-408.98964	-668.43460	878.68607	-308.53256	-703.63503	898.73306	-294.62223	-689.58549	920.61478	-257.92301	-225.94610	1383.99841	-118.13635	-155.12570	1076.09360	-187.64406	-205.98335	1067.09717	-217.08080	-202.82940	1085.38414	-144.95508	-252.19360	844.06265	-102.10919	-242.78090	851.88171	-59.59476	-279.67865	879.18991	-50.71079	-613.72253	917.61230	-284.45190	-275.52286	905.89691	-151.13062	-634.77772	413.24997	-280.36831	-611.49605	456.29208	-355.42049	-538.72517	418.88100	-269.70337	-328.99784	476.12637	-123.89482	-263.89837	493.75179	-217.00306	-384.61414	469.70711	-201.65159	-630.44697	142.63089	-331.06243	-559.86595	133.67688	-342.00893	-600.24391	136.88608	-396.55067	-273.82187	131.67951	-171.92459	-256.30550	128.42102	-239.37592	-330.18021	126.33825	-209.79675	-344.07486	1573.95615	-182.23087	-384.63459	1076.25992	-96.60189	-932.24167	1176.27037	588.53081	-1084.47830	1189.68529	498.23326	-920.87212	1612.22229	455.13832	-1016.48994	1656.71844	525.61340	-883.58231	1813.38348	370.48988	-961.35254	1797.50793	530.49019	-1051.69846	1784.62738	408.68782	-819.21921	1591.23108	557.07100	-748.46664	1224.51950	564.74754	-707.65854	1250.12894	613.83217	-780.13695	1230.58495	643.37425	-648.94272	954.20197	637.14294	-610.91286	967.62054	625.15251	-613.15918	970.72678	576.95637	-1159.14406	1603.00552	428.73772	-1212.02011	1240.79544	349.65534	-1163.20084	1211.76208	402.36485	-1155.38528	1248.79349	324.29737	-1170.45349	1001.19278	265.32001	-1187.15538	1022.17941	227.33755	-1144.30618	1034.75876	210.10107	-824.42474	1037.03369	568.41248	-1120.83176	1034.06166	378.79890	-824.17961	556.86974	465.42862	-831.17744	561.89423	577.72865	-933.74527	546.34499	505.56099	-1021.72836	471.85524	376.22292	-1108.76625	518.78365	432.60796	-1017.22214	502.91302	490.04494	-834.67369	192.35615	545.90584	-910.56305	186.14603	531.43791	-883.20496	186.42632	613.32623	-1062.88330	162.44059	415.06798	-1079.34349	154.32791	491.34579	-998.36563	166.05282	445.73650	-1017.11807	1195.72670	355.14713	-836.30478	1187.05528	449.16416 
59	17.633	-539.47903	1093.69751	-142.37803	-538.53340	1074.80164	-326.15673	-309.72569	1059.03038	-261.88810	-446.56834	1435.59586	-169.99685	-363.57990	1482.41852	-248.56668	-501.36723	1634.47952	-117.44047	-462.91599	1566.53519	-278.94461	-585.75043	1429.37683	-299.25419	-613.25203	1124.67659	-356.21468	-614.30676	1140.61310	-413.59428	-547.57053	1119.04724	-410.76630	-671.34254	883.70758	-305.63431	-707.67670	904.21295	-296.11162	-696.68419	928.21030	-258.97928	-226.34619	1384.28696	-117.42558	-154.33064	1077.13791	-190.84291	-205.88764	1067.90024	-219.13429	-200.64457	1086.89163	-147.06069	-253.73791	848.12592	-99.97255	-239.66413	854.88388	-58.08779	-273.97627	883.81226	-44.39561	-613.26088	917.35992	-284.72223	-275.27832	905.90263	-151.24544	-634.42440	413.43262	-280.63929	-611.30363	456.33575	-355.68012	-538.51700	418.90774	-269.98190	-328.48423	476.03462	-124.07872	-263.83783	493.73760	-216.98191	-384.53079	469.70463	-201.61240	-630.42377	142.67743	-331.14826	-559.78996	133.69641	-342.07790	-600.19573	136.84143	-396.59344	-273.67886	131.57801	-171.99663	-256.30695	128.42103	-239.37763	-330.17632	126.35981	-209.78127	-344.86835	1574.03168	-182.00603	-384.58717	1076.13190	-96.72043	-935.84229	1176.36459	587.94079	-1087.46346	1189.52660	495.96249	-923.39554	1611.30356	453.82832	-1017.67662	1656.70776	524.62151	-885.52917	1812.33047	367.59861	-960.41809	1797.20169	528.94188	-1053.24203	1785.59799	408.93032	-821.16776	1588.47763	558.41934	-753.05756	1221.47743	562.90119	-712.37747	1246.04172	612.47658	-784.78317	1226.35979	641.52000	-654.36363	949.80560	628.53130	-616.18835	963.33015	616.81793	-618.82374	967.45392	568.60188	-1162.76001	1597.75467	424.67781	-1211.19011	1234.65042	347.57404	-1162.32895	1206.79886	400.97885	-1154.09256	1242.50229	323.19309	-1167.94220	993.72276	266.23322	-1183.80875	1014.92920	228.10671	-1140.30167	1026.80809	212.11500	-827.23297	1037.37289	568.40267	-1122.62863	1033.72238	376.89369	-823.68004	556.84624	463.45402	-831.77414	561.53969	575.99571	-933.46428	546.01315	502.78625	-1023.01308	471.78516	377.36855	-1110.62813	518.79395	432.81322	-1019.21776	502.97115	490.60581	-834.78119	192.30831	545.39082	-910.59517	186.00182	530.73875	-883.54187	186.83386	612.74055	-1063.36761	162.35977	415.18883	-1079.85489	154.13999	491.25736	-998.83873	166.22633	445.94994	-1018.45062	1195.51117	353.73310	-838.67317	1186.75697	449.39091 
